<?xml version="1.0" standalone="no"?>
<!DOCTYPE svg PUBLIC "-//W3C//DTD SVG 20010904//EN"
 "http://www.w3.org/TR/2001/REC-SVG-20010904/DTD/svg10.dtd">
<svg version="1.0" xmlns="http://www.w3.org/2000/svg"
 width="512.000000pt" height="512.000000pt" viewBox="0 0 512.000000 512.000000"
 preserveAspectRatio="xMidYMid meet">

<g transform="translate(0.000000,512.000000) scale(0.100000,-0.100000)"
fill="#000000" stroke="none">
<path d="M3514 3976 c2 -23 5 -47 5 -53 1 -8 17 -13 45 -13 24 0 79 -7 122
-15 42 -8 140 -17 218 -21 116 -5 157 -11 231 -35 49 -16 96 -29 105 -29 28 1
-52 60 -135 100 -126 60 -282 91 -518 103 l-78 4 5 -41z"/>
</g>
</svg>
